<?xml version="1.0" encoding="utf-8"?>
<svg viewBox="70.306 5.94 164.008 55.771" xmlns="http://www.w3.org/2000/svg">
  <g id="g10" transform="matrix(1, 0, 0, 1, -25.585001, -24.997999)">
    <g id="g18">
      <g id="g20">
        <path id="path22" d="m 200.791,50.172 c 6.474,0 10.813,4.677 10.813,11.147 0,6.097 -4.424,11.146 -10.813,11.146 -6.428,0 -10.852,-5.049 -10.852,-11.146 0,-6.47 4.338,-11.147 10.852,-11.147 z m 0,19.125 c 4.593,0 6.637,-4.176 6.637,-7.978 0,-4.048 -2.463,-7.972 -6.637,-7.972 -4.216,0 -6.68,3.924 -6.68,7.972 0,3.802 2.047,7.978 6.68,7.978 z" style="fill: rgb(255, 255, 255);"/>
      </g>
      <path id="path24" d="m 189.401,52.154 0,-1.481 -5.638,0 0,-2.024 c 0,-2.881 0.419,-5.055 3.798,-5.055 0.062,0 0.128,0.006 0.193,0.009 0.007,0 0.005,-0.011 0.013,-0.011 0.938,0.068 1.72,-0.695 1.772,-1.633 l 0.068,-1.286 c -0.793,-0.126 -1.63,-0.25 -2.63,-0.25 -5.803,0 -7.138,3.382 -7.138,8.56 l 0,1.69 -5.015,0 0,1.653 c 0.129,0.857 0.863,1.518 1.758,1.518 0.004,0 0.009,0.004 0.014,0.004 l 3.243,0 0,18.119 2.16,0 c 0.005,0 0.002,0 0.007,0 0.9,0 1.634,-0.678 1.756,-1.541 l 0,-16.578 3.926,0 c 0.924,-0.031 1.667,-0.77 1.713,-1.694 z" style="fill: rgb(255, 255, 255);"/>
      <path id="path26" d="m 137.125,50.673 c -0.006,0 -0.011,0.005 -0.021,0.005 -0.826,0 -1.627,0.568 -1.977,1.337 l -5.399,16.278 -0.084,0 -5.281,-16.27 c -0.346,-0.773 -1.15,-1.346 -1.982,-1.346 -0.01,0 -0.013,-0.005 -0.021,-0.005 l -2.737,0 7.223,19.874 c 0.252,0.711 0.754,1.797 0.754,2.254 0,0.42 -1.17,5.26 -4.679,5.26 -0.086,0 -0.174,-0.01 -0.259,-0.016 -0.895,-0.049 -1.571,0.576 -1.72,1.539 l -0.107,1.359 c 0.71,0.125 1.422,0.293 2.674,0.293 5.176,0 6.721,-4.721 8.184,-8.811 l 7.847,-21.753 -2.415,0 z" style="fill: rgb(255, 255, 255);"/>
      <path id="path28" d="m 112.177,54.998 c -3.24,-1.658 -6.787,-2.785 -6.849,-6.121 0.01,-3.543 3.266,-4.474 5.774,-4.471 0.012,-0.002 0.022,-0.002 0.028,-0.002 1.09,0 1.961,0.108 2.812,0.295 0.011,0 0.009,-0.014 0.022,-0.014 0.9,0.066 1.655,-0.637 1.76,-1.523 l 0.072,-1.287 c -1.645,-0.408 -3.364,-0.617 -4.86,-0.617 -5.455,0.034 -9.506,2.779 -9.519,8.018 0.006,4.58 3.092,6.355 6.414,7.963 3.256,1.566 6.821,2.858 6.852,6.639 -0.018,3.943 -3.824,5.396 -6.447,5.402 -1.534,-0.006 -3.199,-0.387 -4.603,-0.83 -0.879,-0.145 -1.6,0.631 -1.715,1.658 l -0.118,1.146 c 1.929,0.623 3.906,1.168 5.895,1.168 0,0 0.002,0 0.004,0 0.005,0 0.012,0 0.018,0 6.112,-0.045 10.862,-2.482 10.881,-8.811 -0.007,-4.882 -3.116,-6.933 -6.421,-8.613 z" style="fill: rgb(255, 255, 255);"/>
      <path id="path30" d="m 171.534,71.967 c 0.003,0 0.003,0 0.005,0 0.847,0 1.554,-0.596 1.731,-1.389 l 0,-12.264 c 0,-4.635 -1.958,-8.143 -7.389,-8.143 -1.92,0 -5.134,1.088 -6.596,4.135 -1.126,-2.881 -3.59,-4.135 -6.051,-4.135 -3.133,0 -5.263,1.127 -6.765,3.592 l -0.084,0 0,-1.324 c -0.012,-0.975 -0.801,-1.762 -1.777,-1.762 -0.009,0 -0.013,-0.005 -0.019,-0.005 l -1.877,0 0,21.294 2.124,0 c 0.003,0 0.003,0 0.005,0 0.984,0 1.78,-0.799 1.78,-1.781 0,-0.027 0.009,-0.037 0.018,-0.055 l 0,-8.895 c 0,-3.965 1.585,-7.889 5.592,-7.889 3.171,0 3.802,3.297 3.802,5.928 l 0,12.691 2.153,0 c 0.002,0 0.002,0 0.006,0 0.93,0 1.679,-0.715 1.762,-1.623 l 0,-9.107 c 0,-3.965 1.588,-7.889 5.595,-7.889 3.173,0 3.8,3.297 3.8,5.928 l 0,12.691 2.185,0 z" style="fill: rgb(255, 255, 255);"/>
      <path id="path32" d="m 232.182,71.967 c 0.002,0 0.002,0 0.005,0 0.957,0 1.728,-0.756 1.773,-1.703 l 0,-10.948 c 0,-5.719 -2.466,-9.145 -7.977,-9.145 -2.964,0 -5.801,1.463 -6.973,3.886 l -0.082,0 0,-1.591 c 0,-0.002 -0.004,-0.002 -0.004,-0.006 0,-0.987 -0.799,-1.783 -1.779,-1.783 -0.011,0 -0.013,-0.005 -0.02,-0.005 l -1.998,0 0,21.294 2.157,0 c 0,0 0,0 0.004,0 0.934,0 1.691,-0.727 1.763,-1.643 l 0,-8.211 c 0,-5.176 2.006,-8.766 6.473,-8.766 3.427,0.207 4.507,2.627 4.507,7.597 l 0,11.022 2.151,0 z" style="fill: rgb(255, 255, 255);"/>
      <path id="path34" d="m 253.31,50.673 c -0.01,0 -0.014,0.005 -0.022,0.005 -0.827,0 -1.629,0.568 -1.978,1.337 l -5.397,16.278 -0.088,0 -5.282,-16.27 c -0.346,-0.773 -1.15,-1.346 -1.98,-1.346 -0.008,0 -0.013,-0.005 -0.02,-0.005 l -2.737,0 7.224,19.874 c 0.25,0.711 0.755,1.797 0.755,2.254 0,0.42 -1.171,5.26 -4.681,5.26 -0.085,0 -0.171,-0.01 -0.259,-0.016 -0.895,-0.049 -1.568,0.576 -1.722,1.539 l -0.105,1.359 c 0.709,0.125 1.422,0.293 2.675,0.293 5.176,0 6.72,-4.721 8.184,-8.811 l 7.849,-21.753 -2.416,0 z" style="fill: rgb(255, 255, 255);"/>
    </g>
  </g>
</svg>