<?xml version="1.0" encoding="utf-8"?>
<svg viewBox="85.493 16.64 28.074 37.879" xmlns="http://www.w3.org/2000/svg">
  <g id="g10" transform="matrix(1, 0, 0, 1, -25.585001, -24.997999)">
    <g id="g18">
      <path id="path28" d="M 127.831 57.988 C 124.591 56.33 121.044 55.203 120.982 51.867 C 120.992 48.324 124.248 47.393 126.756 47.396 C 126.768 47.394 126.778 47.394 126.784 47.394 C 127.874 47.394 128.745 47.502 129.596 47.689 C 129.607 47.689 129.605 47.675 129.618 47.675 C 130.518 47.741 131.273 47.038 131.378 46.152 L 131.45 44.865 C 129.805 44.457 128.086 44.248 126.59 44.248 C 121.135 44.282 117.084 47.027 117.071 52.266 C 117.077 56.846 120.163 58.621 123.485 60.229 C 126.741 61.795 130.306 63.087 130.337 66.868 C 130.319 70.811 126.513 72.264 123.89 72.27 C 122.356 72.264 120.691 71.883 119.287 71.44 C 118.408 71.295 117.687 72.071 117.572 73.098 L 117.454 74.244 C 119.383 74.867 121.36 75.412 123.349 75.412 C 123.349 75.412 123.351 75.412 123.353 75.412 C 123.358 75.412 123.365 75.412 123.371 75.412 C 129.483 75.367 134.233 72.93 134.252 66.601 C 134.245 61.719 131.136 59.668 127.831 57.988 L 127.831 57.988 Z" style="fill: rgb(255, 255, 255);"/>
    </g>
  </g>
</svg>